<svg width="23" height="22" viewBox="0 0 23 22" fill="none" xmlns="http://www.w3.org/2000/svg">
<path fill-rule="evenodd" clip-rule="evenodd" d="M1.80894 1.0005L1.91461 1.01113L4.08128 1.3717C4.39269 1.42353 4.63683 1.64925 4.70813 1.93804L4.72656 2.04907L4.97107 4.85529H19.6553C20.9294 4.85529 21.9189 5.89765 21.8279 7.09865L21.8108 7.24953L20.8222 13.8185C20.6404 15.0222 19.6071 15.9284 18.3609 16.0049L18.1897 16.0101H6.82304C5.49721 16.0101 4.38404 15.0746 4.19237 13.8301L4.17266 13.6661L3.22002 2.75293L1.64814 2.49152C1.25842 2.42666 0.986462 2.0946 1.00052 1.72482L1.01157 1.62321C1.07902 1.24848 1.42437 0.986983 1.80894 1.0005ZM5.72972 13.5408C5.77378 14.0487 6.18637 14.4471 6.70228 14.5014L6.82304 14.5077H18.1897C18.693 14.5077 19.1257 14.1796 19.2511 13.7203L19.2759 13.6029L20.2644 7.03443C20.3137 6.70695 20.0761 6.4112 19.7472 6.36419L19.6553 6.3577H5.10232L5.72972 13.5408ZM6.64846 17.597C5.77729 17.597 5.07138 18.277 5.07138 19.1144C5.07138 19.952 5.77741 20.6308 6.64846 20.6308C7.5194 20.6308 8.22659 19.9521 8.22659 19.1144C8.22659 18.2769 7.51952 17.597 6.64846 17.597ZM18.3697 17.597C17.4987 17.597 16.7916 18.2769 16.7916 19.1144C16.7916 19.9521 17.4988 20.6308 18.3697 20.6308C19.2407 20.6308 19.9478 19.9521 19.9478 19.1144C19.9478 18.2769 19.2408 17.597 18.3697 17.597Z" fill="#9E9E9E"/>
<path d="M1.91461 1.01113L1.99669 0.517911L1.98074 0.515255L1.96464 0.513637L1.91461 1.01113ZM1.80894 1.0005L1.85897 0.50301L1.84277 0.501381L1.8265 0.500809L1.80894 1.0005ZM4.08128 1.3717L4.16336 0.878488L4.08128 1.3717ZM4.70813 1.93804L5.20138 1.85617L5.1982 1.83703L5.19355 1.81819L4.70813 1.93804ZM4.72656 2.04907L5.22467 2.00567L5.22299 1.98634L5.21981 1.96721L4.72656 2.04907ZM4.97107 4.85529L4.47295 4.89869L4.51274 5.35529H4.97107V4.85529ZM21.8279 7.09865L22.3247 7.15481L22.3258 7.14563L22.3265 7.13642L21.8279 7.09865ZM21.8108 7.24953L22.3053 7.32395L22.3066 7.31485L22.3077 7.3057L21.8108 7.24953ZM20.8222 13.8185L21.3166 13.8931L21.3167 13.8929L20.8222 13.8185ZM18.3609 16.0049L18.3762 16.5047L18.3839 16.5044L18.3916 16.504L18.3609 16.0049ZM18.1897 16.0101V16.5101H18.1974L18.205 16.5099L18.1897 16.0101ZM4.19237 13.8301L3.69595 13.8898L3.69694 13.898L3.6982 13.9062L4.19237 13.8301ZM4.17266 13.6661L3.67455 13.7096L3.67526 13.7177L3.67623 13.7258L4.17266 13.6661ZM3.22002 2.75293L3.71813 2.70945L3.68442 2.32329L3.30205 2.2597L3.22002 2.75293ZM1.64814 2.49152L1.56606 2.98474L1.56612 2.98475L1.64814 2.49152ZM1.00052 1.72482L0.503452 1.67076L0.50155 1.68825L0.500882 1.70583L1.00052 1.72482ZM1.01157 1.62321L0.519481 1.53464L0.516391 1.55181L0.514504 1.56915L1.01157 1.62321ZM6.70228 14.5014L6.64992 14.9987L6.663 15L6.67614 15.0007L6.70228 14.5014ZM5.72972 13.5408L6.22784 13.4976L6.22782 13.4973L5.72972 13.5408ZM6.82304 14.5077L6.79691 15.0071L6.80997 15.0077H6.82304V14.5077ZM19.2511 13.7203L19.7334 13.852L19.7373 13.8379L19.7403 13.8236L19.2511 13.7203ZM19.2759 13.6029L19.7651 13.7062L19.7681 13.6918L19.7703 13.6773L19.2759 13.6029ZM20.2644 7.03443L20.7589 7.10884L20.7589 7.10879L20.2644 7.03443ZM19.7472 6.36419L19.8179 5.86922L19.8002 5.86669L19.7824 5.86543L19.7472 6.36419ZM19.6553 6.3577L19.6906 5.85894L19.673 5.8577H19.6553V6.3577ZM5.10232 6.3577V5.8577H4.55674L4.60421 6.4012L5.10232 6.3577ZM1.96464 0.513637L1.85897 0.50301L1.75891 1.49799L1.86458 1.50862L1.96464 0.513637ZM4.16336 0.878488L1.99669 0.517911L1.83253 1.50434L3.9992 1.86492L4.16336 0.878488ZM5.19355 1.81819C5.07272 1.32877 4.66467 0.961916 4.16336 0.878488L3.9992 1.86492C4.1207 1.88514 4.20094 1.96974 4.2227 2.05788L5.19355 1.81819ZM5.21981 1.96721L5.20138 1.85617L4.21488 2.0199L4.2333 2.13093L5.21981 1.96721ZM5.46918 4.81189L5.22467 2.00567L4.22844 2.09247L4.47295 4.89869L5.46918 4.81189ZM19.6553 4.35529H4.97107V5.35529H19.6553V4.35529ZM22.3265 7.13642C22.4408 5.62718 21.202 4.35529 19.6553 4.35529V5.35529C20.6568 5.35529 21.3969 6.16813 21.3293 7.06088L22.3265 7.13642ZM22.3077 7.3057L22.3247 7.15481L21.331 7.04248L21.314 7.19337L22.3077 7.3057ZM21.3167 13.8929L22.3053 7.32395L21.3164 7.17512L20.3278 13.744L21.3167 13.8929ZM18.3916 16.504C19.8586 16.4139 21.0974 15.3439 21.3166 13.8931L20.3278 13.7438C20.1833 14.7005 19.3555 15.4429 18.3303 15.5058L18.3916 16.504ZM18.205 16.5099L18.3762 16.5047L18.3456 15.5051L18.1744 15.5104L18.205 16.5099ZM6.82304 16.5101H18.1897V15.5101H6.82304V16.5101ZM3.6982 13.9062C3.92941 15.4074 5.26369 16.5101 6.82304 16.5101V15.5101C5.73074 15.5101 4.83867 14.7417 4.68655 13.754L3.6982 13.9062ZM3.67623 13.7258L3.69595 13.8898L4.6888 13.7705L4.66908 13.6064L3.67623 13.7258ZM2.72192 2.79641L3.67455 13.7096L4.67076 13.6226L3.71813 2.70945L2.72192 2.79641ZM1.56612 2.98475L3.138 3.24615L3.30205 2.2597L1.73017 1.9983L1.56612 2.98475ZM0.500882 1.70583C0.476829 2.33847 0.939471 2.88046 1.56606 2.98474L1.73022 1.99831C1.57737 1.97287 1.4961 1.85073 1.50016 1.74382L0.500882 1.70583ZM0.514504 1.56915L0.503452 1.67076L1.49759 1.77889L1.50864 1.67728L0.514504 1.56915ZM1.8265 0.500809C1.21151 0.479192 0.634102 0.897852 0.519481 1.53464L1.50366 1.71179C1.52395 1.59911 1.63723 1.49477 1.79137 1.50019L1.8265 0.500809ZM6.75463 14.0042C6.46059 13.9732 6.24983 13.751 6.22784 13.4976L5.23159 13.5841C5.29773 14.3465 5.91215 14.921 6.64992 14.9987L6.75463 14.0042ZM6.84918 14.0084L6.72841 14.0021L6.67614 15.0007L6.79691 15.0071L6.84918 14.0084ZM18.1897 14.0077H6.82304V15.0077H18.1897V14.0077ZM18.7687 13.5887C18.7051 13.8218 18.4767 14.0077 18.1897 14.0077V15.0077C18.9092 15.0077 19.5463 14.5375 19.7334 13.852L18.7687 13.5887ZM18.7867 13.4996L18.7619 13.617L19.7403 13.8236L19.7651 13.7062L18.7867 13.4996ZM19.77 6.96002L18.7815 13.5285L19.7703 13.6773L20.7589 7.10884L19.77 6.96002ZM19.6764 6.85916C19.7112 6.86413 19.7377 6.88158 19.7536 6.90201C19.7685 6.9211 19.773 6.94014 19.77 6.96006L20.7589 7.10879C20.8527 6.48504 20.3993 5.95232 19.8179 5.86922L19.6764 6.85916ZM19.6201 6.85645L19.7119 6.86294L19.7824 5.86543L19.6906 5.85894L19.6201 6.85645ZM5.10232 6.8577H19.6553V5.8577H5.10232V6.8577ZM6.22782 13.4973L5.60042 6.31419L4.60421 6.4012L5.23161 13.5843L6.22782 13.4973ZM5.57138 19.1144C5.57138 18.5709 6.03525 18.097 6.64846 18.097V17.097C5.51932 17.097 4.57138 17.983 4.57138 19.1144H5.57138ZM6.64846 20.1308C6.03488 20.1308 5.57138 19.6575 5.57138 19.1144H4.57138C4.57138 20.2464 5.51993 21.1308 6.64846 21.1308V20.1308ZM7.72659 19.1144C7.72659 19.6572 7.26241 20.1308 6.64846 20.1308V21.1308C7.77639 21.1308 8.72659 20.247 8.72659 19.1144H7.72659ZM6.64846 18.097C7.26204 18.097 7.72659 18.5713 7.72659 19.1144H8.72659C8.72659 17.9824 7.777 17.097 6.64846 17.097V18.097ZM17.2916 19.1144C17.2916 18.5713 17.7561 18.097 18.3697 18.097V17.097C17.2412 17.097 16.2916 17.9824 16.2916 19.1144H17.2916ZM18.3697 20.1308C17.7558 20.1308 17.2916 19.6572 17.2916 19.1144H16.2916C16.2916 20.247 17.2418 21.1308 18.3697 21.1308V20.1308ZM19.4478 19.1144C19.4478 19.6572 18.9837 20.1308 18.3697 20.1308V21.1308C19.4976 21.1308 20.4478 20.247 20.4478 19.1144H19.4478ZM18.3697 18.097C18.9833 18.097 19.4478 18.5713 19.4478 19.1144H20.4478C20.4478 17.9824 19.4982 17.097 18.3697 17.097V18.097Z" fill="#9E9E9E"/>
</svg>
