<svg width="25" height="25" viewBox="0 0 25 25" fill="none"
    xmlns="http://www.w3.org/2000/svg">
    <path d="M12.5 14.3229C11.3153 14.3229 10.1573 13.9716 9.17233 13.3135C8.18735 12.6553 7.41965 11.7199 6.96631 10.6254C6.51297 9.531 6.39436 8.32669 6.62547 7.16483C6.85658 6.00296 7.42703 4.93572 8.26469 4.09806C9.10235 3.2604 10.1696 2.68995 11.3315 2.45884C12.4933 2.22773 13.6976 2.34635 14.7921 2.79968C15.8865 3.25302 16.822 4.02072 17.4801 5.0057C18.1383 5.99068 18.4895 7.14871 18.4895 8.33334C18.4868 9.92103 17.8549 11.4429 16.7322 12.5656C15.6095 13.6882 14.0877 14.3202 12.5 14.3229V14.3229ZM12.5 3.90625C11.6244 3.90625 10.7684 4.1659 10.0404 4.65235C9.31238 5.1388 8.74495 5.83022 8.40987 6.63916C8.07479 7.44811 7.98712 8.33825 8.15794 9.19702C8.32876 10.0558 8.7504 10.8446 9.36954 11.4638C9.98868 12.0829 10.7775 12.5045 11.6363 12.6754C12.4951 12.8462 13.3852 12.7585 14.1941 12.4234C15.0031 12.0884 15.6945 11.5209 16.1809 10.7929C16.6674 10.0649 16.927 9.20893 16.927 8.33334C16.9243 7.16005 16.457 6.0356 15.6273 5.20595C14.7977 4.37631 13.6733 3.909 12.5 3.90625V3.90625Z" fill="#9E9E9E"/>
    <path d="M21.875 22.6563C21.6686 22.6536 21.4715 22.5705 21.3256 22.4245C21.1796 22.2786 21.0964 22.0814 21.0937 21.8751C21.091 19.873 20.2944 17.9537 18.8788 16.538C17.4631 15.1223 15.5438 14.3258 13.5417 14.323H11.4583C9.45624 14.3258 7.53694 15.1223 6.12125 16.538C4.70555 17.9537 3.90901 19.873 3.90625 21.8751C3.90625 22.0823 3.82394 22.281 3.67743 22.4275C3.53091 22.574 3.3322 22.6563 3.125 22.6563C2.9178 22.6563 2.71909 22.574 2.57257 22.4275C2.42606 22.281 2.34375 22.0823 2.34375 21.8751C2.34651 19.4586 3.30768 17.1419 5.01639 15.4331C6.72511 13.7244 9.04184 12.7633 11.4583 12.7605H13.5417C15.9582 12.7633 18.2749 13.7244 19.9836 15.4331C21.6923 17.1419 22.6535 19.4586 22.6562 21.8751C22.6536 22.0814 22.5704 22.2786 22.4244 22.4245C22.2785 22.5705 22.0814 22.6536 21.875 22.6563Z" fill="#9E9E9E"/>
</svg>
