<svg width="22" height="22" viewBox="0 0 22 22" fill="none" xmlns="http://www.w3.org/2000/svg">
<mask id="path-1-outside-1_1_3122" maskUnits="userSpaceOnUse" x="0" y="0" width="22" height="22" fill="black">
<rect fill="white" width="22" height="22"/>
<path fill-rule="evenodd" clip-rule="evenodd" d="M10.6115 1C5.30323 1 1 5.20819 1 10.3993C1 15.5903 5.30323 19.7985 10.6115 19.7985C12.8819 19.7985 14.9684 19.0287 16.613 17.7415L19.7371 20.7886L19.8202 20.8586C20.1102 21.0685 20.5214 21.0446 20.7839 20.7873C21.0726 20.5043 21.072 20.0459 20.7825 19.7636L17.6952 16.7523C19.2649 15.0794 20.2231 12.8487 20.2231 10.3993C20.2231 5.20819 15.9198 1 10.6115 1ZM10.6115 2.44774C15.1022 2.44774 18.7426 6.00776 18.7426 10.3993C18.7426 14.7908 15.1022 18.3508 10.6115 18.3508C6.12086 18.3508 2.48044 14.7908 2.48044 10.3993C2.48044 6.00776 6.12086 2.44774 10.6115 2.44774Z"/>
</mask>
<path fill-rule="evenodd" clip-rule="evenodd" d="M10.6115 1C5.30323 1 1 5.20819 1 10.3993C1 15.5903 5.30323 19.7985 10.6115 19.7985C12.8819 19.7985 14.9684 19.0287 16.613 17.7415L19.7371 20.7886L19.8202 20.8586C20.1102 21.0685 20.5214 21.0446 20.7839 20.7873C21.0726 20.5043 21.072 20.0459 20.7825 19.7636L17.6952 16.7523C19.2649 15.0794 20.2231 12.8487 20.2231 10.3993C20.2231 5.20819 15.9198 1 10.6115 1ZM10.6115 2.44774C15.1022 2.44774 18.7426 6.00776 18.7426 10.3993C18.7426 14.7908 15.1022 18.3508 10.6115 18.3508C6.12086 18.3508 2.48044 14.7908 2.48044 10.3993C2.48044 6.00776 6.12086 2.44774 10.6115 2.44774Z" fill="#061737"/>
<path d="M16.613 17.7415L17.3112 17.0256L16.6852 16.4151L15.9966 16.954L16.613 17.7415ZM19.7371 20.7886L19.0388 21.5045L19.065 21.53L19.093 21.5536L19.7371 20.7886ZM19.8202 20.8586L19.1761 21.6236L19.2042 21.6472L19.2339 21.6688L19.8202 20.8586ZM20.7839 20.7873L21.484 21.5014L21.484 21.5014L20.7839 20.7873ZM20.7825 19.7636L20.0843 20.4795L20.0843 20.4795L20.7825 19.7636ZM17.6952 16.7523L16.9659 16.068L16.2948 16.7833L16.9969 17.4682L17.6952 16.7523ZM2 10.3993C2 5.78141 5.83435 2 10.6115 2V0C4.77212 0 0 4.63497 0 10.3993H2ZM10.6115 18.7985C5.83435 18.7985 2 15.0171 2 10.3993H0C0 16.1635 4.77212 20.7985 10.6115 20.7985V18.7985ZM15.9966 16.954C14.5233 18.1072 12.6526 18.7985 10.6115 18.7985V20.7985C13.1112 20.7985 15.4135 19.9503 17.2293 18.529L15.9966 16.954ZM20.4353 20.0728L17.3112 17.0256L15.9147 18.4574L19.0388 21.5045L20.4353 20.0728ZM20.4643 20.0937L20.3811 20.0237L19.093 21.5536L19.1761 21.6236L20.4643 20.0937ZM20.0838 20.0733C20.1761 19.9827 20.3093 19.9782 20.4064 20.0485L19.2339 21.6688C19.9112 22.1588 20.8667 22.1066 21.484 21.5014L20.0838 20.0733ZM20.0843 20.4795C19.9721 20.3701 19.9718 20.183 20.0838 20.0733L21.484 21.5014C22.1733 20.8255 22.1718 19.7218 21.4807 19.0477L20.0843 20.4795ZM16.9969 17.4682L20.0843 20.4795L21.4808 19.0477L18.3934 16.0364L16.9969 17.4682ZM19.2231 10.3993C19.2231 12.5818 18.3707 14.571 16.9659 16.068L18.4244 17.4366C20.1592 15.5878 21.2231 13.1157 21.2231 10.3993H19.2231ZM10.6115 2C15.3887 2 19.2231 5.78141 19.2231 10.3993H21.2231C21.2231 4.63497 16.451 0 10.6115 0V2ZM19.7426 10.3993C19.7426 5.43454 15.6333 1.44774 10.6115 1.44774V3.44774C14.5711 3.44774 17.7426 6.58098 17.7426 10.3993H19.7426ZM10.6115 19.3508C15.6333 19.3508 19.7426 15.364 19.7426 10.3993H17.7426C17.7426 14.2175 14.5711 17.3508 10.6115 17.3508V19.3508ZM1.48044 10.3993C1.48044 15.364 5.58974 19.3508 10.6115 19.3508V17.3508C6.65197 17.3508 3.48044 14.2175 3.48044 10.3993H1.48044ZM10.6115 1.44774C5.58974 1.44774 1.48044 5.43454 1.48044 10.3993H3.48044C3.48044 6.58098 6.65197 3.44774 10.6115 3.44774V1.44774Z" fill="#061737" mask="url(#path-1-outside-1_1_3122)"/>
</svg>
